<svg width="16" height="14" viewBox="0 0 16 14" fill="none" xmlns="http://www.w3.org/2000/svg">
<path fill-rule="evenodd" clip-rule="evenodd" d="M8.28711 0.299134C8.47464 0.111663 8.72895 0.00634734 8.99411 0.00634735C9.25927 0.00634736 9.51358 0.111663 9.70111 0.299134L15.7011 6.29913C15.8886 6.48666 15.9939 6.74097 15.9939 7.00613C15.9939 7.2713 15.8886 7.52561 15.7011 7.71313L9.70111 13.7131C9.51251 13.8953 9.25991 13.9961 8.99771 13.9938C8.73551 13.9915 8.4847 13.8864 8.29929 13.701C8.11388 13.5155 8.00871 13.2647 8.00644 13.0025C8.00416 12.7403 8.10495 12.4877 8.28711 12.2991L12.5801 8.00613L0.99411 8.00613C0.728893 8.00613 0.474539 7.90078 0.287002 7.71324C0.0994659 7.5257 -0.00589021 7.27135 -0.0058902 7.00613C-0.00589019 6.74092 0.0994659 6.48656 0.287002 6.29903C0.474539 6.11149 0.728893 6.00613 0.99411 6.00613L12.5801 6.00613L8.28711 1.71313C8.09964 1.52561 7.99432 1.2713 7.99432 1.00613C7.99432 0.74097 8.09964 0.486661 8.28711 0.299134Z" fill="black"/>
</svg>
